<svg width="32" height="32" viewBox="0 0 32 32" fill="none" xmlns="http://www.w3.org/2000/svg">
<path fill-rule="evenodd" clip-rule="evenodd" d="M16 4.31836C16.5523 4.31836 17 4.75487 17 5.29333V26.7428C17 27.2812 16.5523 27.7177 16 27.7177C15.4477 27.7177 15 27.2812 15 26.7428V5.29333C15 4.75487 15.4477 4.31836 16 4.31836Z" fill="#825DE9"/>
<path fill-rule="evenodd" clip-rule="evenodd" d="M6.29289 17.2786C6.68342 16.8978 7.31658 16.8978 7.70711 17.2786L16 25.3639L24.2929 17.2786C24.6834 16.8978 25.3166 16.8978 25.7071 17.2786C26.0976 17.6593 26.0976 18.2767 25.7071 18.6574L16.7071 27.4322C16.3166 27.8129 15.6834 27.8129 15.2929 27.4322L6.29289 18.6574C5.90237 18.2767 5.90237 17.6593 6.29289 17.2786Z" fill="#825DE9"/>
</svg>
